<mxfile host="app.diagrams.net" agent="Mozilla/5.0 (Macintosh; Intel Mac OS X 10_15_7) AppleWebKit/537.36 (KHTML, like Gecko) Chrome/138.0.0.0 Safari/537.36" version="28.0.7">
  <diagram name="ページ1" id="6BR8eXlqOtS6E0fcOTNd">
    <mxGraphModel dx="946" dy="610" grid="1" gridSize="10" guides="1" tooltips="1" connect="1" arrows="1" fold="1" page="1" pageScale="1" pageWidth="827" pageHeight="1169" math="0" shadow="0">
      <root>
        <mxCell id="0" />
        <mxCell id="1" parent="0" />
        <mxCell id="cxEWJDG2EKxdDDsnUdWH-1" value="Logout" style="swimlane;childLayout=stackLayout;resizeParent=1;resizeParentMax=0;startSize=20;html=1;rounded=1;" vertex="1" parent="1">
          <mxGeometry x="180" y="80" width="440" height="640" as="geometry" />
        </mxCell>
        <mxCell id="cxEWJDG2EKxdDDsnUdWH-2" value="User" style="swimlane;startSize=20;html=1;rounded=1;" vertex="1" parent="cxEWJDG2EKxdDDsnUdWH-1">
          <mxGeometry y="20" width="120" height="620" as="geometry" />
        </mxCell>
        <mxCell id="cxEWJDG2EKxdDDsnUdWH-5" value="ログアウトボタンを押下" style="ellipse;whiteSpace=wrap;html=1;rounded=1;" vertex="1" parent="cxEWJDG2EKxdDDsnUdWH-2">
          <mxGeometry x="30" y="40" width="60" height="60" as="geometry" />
        </mxCell>
        <mxCell id="cxEWJDG2EKxdDDsnUdWH-29" value="終了" style="ellipse;whiteSpace=wrap;html=1;rounded=1;" vertex="1" parent="cxEWJDG2EKxdDDsnUdWH-2">
          <mxGeometry x="30" y="540" width="60" height="60" as="geometry" />
        </mxCell>
        <mxCell id="cxEWJDG2EKxdDDsnUdWH-3" value="App" style="swimlane;startSize=20;html=1;rounded=1;" vertex="1" parent="cxEWJDG2EKxdDDsnUdWH-1">
          <mxGeometry x="120" y="20" width="160" height="620" as="geometry" />
        </mxCell>
        <mxCell id="cxEWJDG2EKxdDDsnUdWH-6" value="セッションの無効化をクラウドDBへ要求" style="whiteSpace=wrap;html=1;rounded=1;" vertex="1" parent="cxEWJDG2EKxdDDsnUdWH-3">
          <mxGeometry x="19.999999999999545" y="40" width="120" height="60" as="geometry" />
        </mxCell>
        <mxCell id="cxEWJDG2EKxdDDsnUdWH-25" value="No" style="edgeStyle=orthogonalEdgeStyle;rounded=1;orthogonalLoop=1;jettySize=auto;html=1;" edge="1" parent="cxEWJDG2EKxdDDsnUdWH-3" source="cxEWJDG2EKxdDDsnUdWH-11" target="cxEWJDG2EKxdDDsnUdWH-24">
          <mxGeometry relative="1" as="geometry" />
        </mxCell>
        <mxCell id="cxEWJDG2EKxdDDsnUdWH-28" value="Yes" style="edgeStyle=orthogonalEdgeStyle;rounded=1;orthogonalLoop=1;jettySize=auto;html=1;exitX=1;exitY=0.5;exitDx=0;exitDy=0;entryX=1;entryY=0.5;entryDx=0;entryDy=0;" edge="1" parent="cxEWJDG2EKxdDDsnUdWH-3" source="cxEWJDG2EKxdDDsnUdWH-11" target="cxEWJDG2EKxdDDsnUdWH-18">
          <mxGeometry relative="1" as="geometry">
            <Array as="points">
              <mxPoint x="150" y="200" />
              <mxPoint x="150" y="370" />
            </Array>
          </mxGeometry>
        </mxCell>
        <mxCell id="cxEWJDG2EKxdDDsnUdWH-11" value="通信に成功した？" style="rhombus;whiteSpace=wrap;html=1;rounded=1;" vertex="1" parent="cxEWJDG2EKxdDDsnUdWH-3">
          <mxGeometry x="39.999999999999545" y="160" width="80" height="80" as="geometry" />
        </mxCell>
        <mxCell id="cxEWJDG2EKxdDDsnUdWH-21" value="" style="edgeStyle=orthogonalEdgeStyle;rounded=1;orthogonalLoop=1;jettySize=auto;html=1;" edge="1" parent="cxEWJDG2EKxdDDsnUdWH-3" source="cxEWJDG2EKxdDDsnUdWH-18" target="cxEWJDG2EKxdDDsnUdWH-20">
          <mxGeometry relative="1" as="geometry" />
        </mxCell>
        <mxCell id="cxEWJDG2EKxdDDsnUdWH-18" value="キャッシュを削除" style="whiteSpace=wrap;html=1;rounded=1;" vertex="1" parent="cxEWJDG2EKxdDDsnUdWH-3">
          <mxGeometry x="19.999999999999545" y="340" width="120" height="60" as="geometry" />
        </mxCell>
        <mxCell id="cxEWJDG2EKxdDDsnUdWH-23" value="" style="edgeStyle=orthogonalEdgeStyle;rounded=1;orthogonalLoop=1;jettySize=auto;html=1;" edge="1" parent="cxEWJDG2EKxdDDsnUdWH-3" source="cxEWJDG2EKxdDDsnUdWH-20" target="cxEWJDG2EKxdDDsnUdWH-22">
          <mxGeometry relative="1" as="geometry" />
        </mxCell>
        <mxCell id="cxEWJDG2EKxdDDsnUdWH-20" value="ローカルの認証トークンおよびセッション情報を削除" style="whiteSpace=wrap;html=1;rounded=1;" vertex="1" parent="cxEWJDG2EKxdDDsnUdWH-3">
          <mxGeometry x="19.999999999999545" y="440" width="120" height="60" as="geometry" />
        </mxCell>
        <mxCell id="cxEWJDG2EKxdDDsnUdWH-22" value="ログイン画面へ遷移" style="whiteSpace=wrap;html=1;rounded=1;" vertex="1" parent="cxEWJDG2EKxdDDsnUdWH-3">
          <mxGeometry x="20" y="540" width="120" height="60" as="geometry" />
        </mxCell>
        <mxCell id="cxEWJDG2EKxdDDsnUdWH-24" value="エラーメッセージを表示" style="whiteSpace=wrap;html=1;rounded=1;" vertex="1" parent="cxEWJDG2EKxdDDsnUdWH-3">
          <mxGeometry x="20" y="260" width="120" height="60" as="geometry" />
        </mxCell>
        <mxCell id="cxEWJDG2EKxdDDsnUdWH-4" value="DB" style="swimlane;startSize=20;html=1;rounded=1;" vertex="1" parent="cxEWJDG2EKxdDDsnUdWH-1">
          <mxGeometry x="280" y="20" width="160" height="620" as="geometry" />
        </mxCell>
        <mxCell id="cxEWJDG2EKxdDDsnUdWH-10" value="セッションを無効化" style="whiteSpace=wrap;html=1;rounded=1;" vertex="1" parent="cxEWJDG2EKxdDDsnUdWH-4">
          <mxGeometry x="20" y="40" width="120" height="60" as="geometry" />
        </mxCell>
        <mxCell id="cxEWJDG2EKxdDDsnUdWH-7" style="edgeStyle=orthogonalEdgeStyle;rounded=1;orthogonalLoop=1;jettySize=auto;html=1;exitX=1;exitY=0.5;exitDx=0;exitDy=0;" edge="1" parent="cxEWJDG2EKxdDDsnUdWH-1" source="cxEWJDG2EKxdDDsnUdWH-5" target="cxEWJDG2EKxdDDsnUdWH-6">
          <mxGeometry relative="1" as="geometry" />
        </mxCell>
        <mxCell id="cxEWJDG2EKxdDDsnUdWH-9" value="" style="edgeStyle=orthogonalEdgeStyle;rounded=1;orthogonalLoop=1;jettySize=auto;html=1;entryX=0;entryY=0.5;entryDx=0;entryDy=0;" edge="1" parent="cxEWJDG2EKxdDDsnUdWH-1" source="cxEWJDG2EKxdDDsnUdWH-6" target="cxEWJDG2EKxdDDsnUdWH-10">
          <mxGeometry relative="1" as="geometry">
            <mxPoint x="279.99999999999955" y="90" as="targetPoint" />
          </mxGeometry>
        </mxCell>
        <mxCell id="cxEWJDG2EKxdDDsnUdWH-27" style="edgeStyle=orthogonalEdgeStyle;rounded=1;orthogonalLoop=1;jettySize=auto;html=1;exitX=0.5;exitY=1;exitDx=0;exitDy=0;entryX=0.5;entryY=0;entryDx=0;entryDy=0;" edge="1" parent="cxEWJDG2EKxdDDsnUdWH-1" source="cxEWJDG2EKxdDDsnUdWH-10" target="cxEWJDG2EKxdDDsnUdWH-11">
          <mxGeometry relative="1" as="geometry" />
        </mxCell>
        <mxCell id="cxEWJDG2EKxdDDsnUdWH-30" style="edgeStyle=orthogonalEdgeStyle;rounded=1;orthogonalLoop=1;jettySize=auto;html=1;exitX=0;exitY=0.5;exitDx=0;exitDy=0;entryX=1;entryY=0.5;entryDx=0;entryDy=0;" edge="1" parent="cxEWJDG2EKxdDDsnUdWH-1" source="cxEWJDG2EKxdDDsnUdWH-22" target="cxEWJDG2EKxdDDsnUdWH-29">
          <mxGeometry relative="1" as="geometry" />
        </mxCell>
        <mxCell id="cxEWJDG2EKxdDDsnUdWH-32" style="edgeStyle=orthogonalEdgeStyle;rounded=1;orthogonalLoop=1;jettySize=auto;html=1;exitX=0;exitY=0.5;exitDx=0;exitDy=0;" edge="1" parent="cxEWJDG2EKxdDDsnUdWH-1" source="cxEWJDG2EKxdDDsnUdWH-24" target="cxEWJDG2EKxdDDsnUdWH-29">
          <mxGeometry relative="1" as="geometry" />
        </mxCell>
      </root>
    </mxGraphModel>
  </diagram>
</mxfile>
